<svg width="99" height="38" viewBox="0 0 99 38" fill="none" xmlns="http://www.w3.org/2000/svg">
<path d="M10.6775 0L17.8879 7.21684C19.3502 8.68184 20.1749 10.6646 20.1828 12.7341V25.2721C20.1823 27.3413 19.3599 29.3256 17.8962 30.7888L10.6853 38L5.93649 33.249L19.0679 20.1119C19.3603 19.8158 19.5243 19.4164 19.5243 19.0003C19.5243 18.5841 19.3603 18.1848 19.0679 17.8886L5.93649 4.75103L10.6775 0ZM0.000516891 10.6847L4.74929 5.94292C11.9592 13.1505 11.9592 24.8459 4.74929 32.0602L0.000516891 27.3091C4.59444 22.7237 4.59444 15.2788 0.000516891 10.6847Z" fill="black"/>
<path d="M35.4934 9.48143H29.7278V28.4814H35.4243C41.5006 28.4814 45.3348 24.8609 45.3348 18.999C45.3678 13.102 41.6039 9.48143 35.4934 9.48143ZM35.4614 25.93H32.8692V12.0669H35.4614C39.7054 12.0669 42.1201 14.6535 42.1201 18.9979C42.1201 23.3094 39.7033 25.93 35.4614 25.93ZM52.3764 14.4471C48.8205 14.4471 46.6799 16.4124 46.5762 19.0681H49.5798C49.6489 17.5161 50.6503 16.6885 52.3418 16.6885C54.0684 16.6885 55.1384 17.6538 55.1384 19.4814V19.8942L51.6517 20.2393C48.5789 20.584 46.1286 21.6185 46.1286 24.446C46.1286 26.9634 48.1309 28.7564 50.9966 28.7564C53.068 28.7564 54.6217 27.6873 55.174 25.7912H55.2401V28.4814H58.1405V20.0324C58.1079 16.3428 55.8982 14.4471 52.3764 14.4471ZM55.1038 22.4817C55.1038 25.1023 53.8609 26.5507 51.7203 26.5507C50.4087 26.5507 49.235 25.7922 49.235 24.5162C49.235 23.2056 50.2704 22.5504 52.1002 22.3435L55.1038 21.9988V22.4817ZM62.5945 17.4129C63.1798 15.479 64.6313 14.4471 66.6341 14.4471C69.6722 14.4471 71.1567 16.5161 71.1247 19.5505V28.4814H68.1186V20.4117C68.1186 17.8597 67.1864 16.6874 65.3565 16.6874C63.4921 16.6874 62.5945 17.9634 62.5945 20.2048V28.4814H59.5909V14.7221H62.5253V17.4118L62.5945 17.4129ZM79.1331 26.5512C76.8548 26.5512 75.5772 24.5167 75.5772 21.6206C75.5772 18.7585 76.751 16.6895 78.9953 16.6895C80.6182 16.6895 81.7574 17.724 82.0681 19.4824H85.1063C84.5901 16.2411 82.1718 14.4822 78.9262 14.4822C74.8866 14.4822 72.4007 17.9309 72.4007 21.6541C72.4007 25.4475 74.9903 28.8261 79.0299 28.8261C82.2405 28.8261 84.6918 26.9985 85.2446 23.7572H82.1718C81.8611 25.4821 80.7214 26.5501 79.1331 26.5501V26.5512ZM86.1422 21.619C86.1422 17.7916 88.4898 14.4471 92.5985 14.4471C96.7072 14.4471 99.4001 17.7916 98.9505 22.5844H89.1112C89.2496 25.1018 90.6995 26.5501 92.8055 26.5501C94.6007 26.5501 95.3605 25.3433 95.7058 24.2396H98.7094C98.1571 26.964 95.982 28.7915 92.6331 28.7915C88.5238 28.791 86.1422 25.446 86.1422 21.619ZM92.5985 16.6879C90.5957 16.6879 89.3874 18.1017 89.1804 20.3431H95.982C95.8111 18.1357 94.6007 16.6874 92.5985 16.6874V16.6879Z" fill="black"/>
</svg>
